# xmcd
#
# Track frame offsets: 
#        150
#        14870
#        30589
#        45806
#        59801
#        74547
#        91327
#        103701
#        117274
#        133249
#        151165
#
# Disc length: 2276 seconds
#
# Revision: 0
# Processed by: cddbd v1.5.2PL0 Copyright (c) Steve Scherf et al.
# Submitted via: ExactAudioCopyFreeDBPlugin 1.0
#
DISCID=9708e20b
DTITLE=Humming House - Revelries
DYEAR=2015
DGENRE=Country
TTITLE0=Run With Me
TTITLE1=Great Divide
TTITLE2=Fly on Forever Is Better With You 
TTITLE3=Nuts Bolts And Screws
TTITLE4=Hitch Hike
TTITLE5=This Hell Where We Belong
TTITLE6=Freight Train
TTITLE7=I An A Bird
TTITLE8=The Love That We've Made
TTITLE9=Carry On
TTITLE10=Atlantic
EXTD=
EXTT0=
EXTT1=
EXTT2=
EXTT3=
EXTT4=
EXTT5=
EXTT6=
EXTT7=
EXTT8=
EXTT9=
EXTT10=
PLAYORDER=
